<?xml version="1.0" standalone="no"?>
<!DOCTYPE svg PUBLIC "-//W3C//DTD SVG 20010904//EN"
 "http://www.w3.org/TR/2001/REC-SVG-20010904/DTD/svg10.dtd">
<svg version="1.0" xmlns="http://www.w3.org/2000/svg"
 width="1024.000000pt" height="1024.000000pt" viewBox="0 0 1024.000000 1024.000000"
 preserveAspectRatio="xMidYMid meet">

<g transform="translate(0.000000,1024.000000) scale(0.100000,-0.100000)"
fill="#000000" stroke="none">
<path d="M7210 8949 c-348 -41 -666 -244 -851 -543 -60 -98 -103 -201 -137
-325 -23 -86 -25 -114 -25 -276 0 -162 2 -190 25 -276 92 -341 298 -597 603
-749 323 -161 682 -167 1002 -15 725 343 890 1293 323 1855 -189 187 -432 301
-700 330 -108 11 -135 11 -240 -1z"/>
<path d="M5050 7004 c-569 -300 -1037 -548 -1039 -550 -3 -2 16 -26 40 -52 70
-72 102 -118 167 -237 63 -116 105 -221 117 -293 4 -28 12 -42 20 -40 22 5
2064 1083 2065 1089 0 4 -33 48 -74 99 -120 150 -205 320 -238 473 -6 31 -14
57 -18 57 -3 0 -471 -246 -1040 -546z"/>
<path d="M2975 6714 c-283 -43 -487 -140 -674 -318 -345 -330 -447 -855 -253
-1296 142 -322 425 -558 781 -651 111 -30 346 -37 466 -15 256 48 450 152 631
338 339 348 420 861 204 1303 -155 320 -444 543 -802 621 -72 15 -294 27 -353
18z"/>
<path d="M4230 4999 c-72 -149 -196 -304 -327 -409 -43 -35 -79 -66 -81 -70
-3 -8 2303 -1713 2323 -1718 6 -2 17 15 24 37 20 69 108 233 163 305 28 38 89
108 135 156 l83 88 -1137 838 c-625 462 -1139 840 -1143 842 -3 1 -22 -30 -40
-69z"/>
<path d="M7260 3550 c-213 -21 -415 -98 -581 -221 -81 -60 -212 -195 -266
-274 -133 -197 -197 -407 -197 -650 0 -316 114 -593 335 -814 387 -386 986
-447 1442 -148 234 153 405 390 483 668 38 139 45 371 14 519 -63 306 -235
561 -495 735 -210 141 -487 210 -735 185z"/>
</g>
</svg>
